<svg viewBox="0 0 110 59" fill="none" xmlns="http://www.w3.org/2000/svg"><path d="M8.76 12.545H.973v24.084h7.785V12.545z" fill="#fff"/><path fill-rule="evenodd" clip-rule="evenodd" d="M4.867 9.384c1.4 0 2.56-.444 3.483-1.33.922-.887 1.383-1.998 1.383-3.336 0-1.372-.461-2.5-1.383-3.386C7.427.443 6.267 0 4.867 0c-1.435 0-2.604.443-3.51 1.33C.454 2.216 0 3.344 0 4.716c0 1.372.453 2.493 1.358 3.361.905.872 2.074 1.307 3.509 1.307zm6.509 3.161V36.63h7.787v-9.532c0-5.05 2.203-7.577 6.609-7.577.853 0 1.707.084 2.56.25v-7.376c-.547-.201-1.229-.3-2.048-.3-1.606 0-3.048.393-4.33 1.178-1.28.786-2.246 1.916-2.893 3.386h-.204l-.307-4.113h-7.174zm21.414 1.504c-1.946 1.439-2.92 3.344-2.92 5.72 0 1.975.685 3.596 2.05 4.867 1.367 1.271 3.364 2.057 5.993 2.36l3.383.35c1.366.168 2.32.41 2.87.727.544.32.819.794.819 1.43 0 .738-.307 1.297-.923 1.681-.615.384-1.52.576-2.715.576-1.197 0-2.151-.225-2.87-.677-.718-.451-1.11-1.06-1.18-1.832h-7.53c.172 2.509 1.247 4.475 3.228 5.895 1.98 1.422 4.781 2.132 8.402 2.132 3.586 0 6.36-.718 8.325-2.157 1.965-1.44 2.947-3.445 2.947-6.02 0-2.074-.675-3.721-2.022-4.944-1.35-1.22-3.305-1.964-5.866-2.233l-3.387-.399c-1.4-.132-2.38-.359-2.944-.676-.565-.317-.846-.744-.846-1.28 0-.634.307-1.136.923-1.506.615-.367 1.501-.552 2.664-.552 2.357 0 3.62.87 3.792 2.609h7.427c-.172-2.676-1.188-4.716-3.048-6.121-1.861-1.406-4.568-2.107-8.12-2.107-3.689 0-6.507.72-8.453 2.157zm26.766-.527c-1.758 1.088-3.142 2.6-4.15 4.541-1.008 1.941-1.512 4.116-1.512 6.523s.504 4.584 1.512 6.522c1.008 1.941 2.392 3.454 4.15 4.542 1.759 1.086 3.747 1.63 5.97 1.63 1.638 0 3.09-.309 4.353-.928 1.263-.62 2.235-1.513 2.921-2.685h.204l.307 2.96h7.223V12.545h-7.223l-.307 2.96H72.8c-.684-1.17-1.658-2.065-2.92-2.685-1.264-.62-2.716-.928-4.355-.928-2.222 0-4.21.544-5.969 1.63zm2.332 11.064c0-1.672.504-3.044 1.512-4.115 1.006-1.07 2.363-1.605 4.073-1.605 1.707 0 3.073.535 4.098 1.605 1.026 1.071 1.538 2.443 1.538 4.115 0 1.672-.512 3.052-1.538 4.138-1.025 1.088-2.391 1.63-4.098 1.63-1.673 0-3.022-.544-4.048-1.63-1.025-1.084-1.537-2.464-1.537-4.138zm26.048-11.064c-1.759 1.088-3.133 2.6-4.124 4.541-.991 1.941-1.487 4.115-1.487 6.523 0 2.44.496 4.623 1.487 6.548.99 1.924 2.374 3.428 4.15 4.516 1.776 1.086 3.775 1.63 5.995 1.63 1.604 0 3.039-.309 4.304-.928 1.263-.62 2.235-1.513 2.919-2.685h.206l.307 2.96h7.309V1.506h-7.768v13.999h-.155a7.072 7.072 0 00-2.944-2.685c-1.247-.62-2.673-.928-4.28-.928-2.187 0-4.16.544-5.919 1.63zm2.332 11.064c0-1.672.504-3.044 1.512-4.115 1.005-1.07 2.363-1.605 4.073-1.605 1.707 0 3.073.535 4.098 1.605 1.025 1.07 1.538 2.443 1.538 4.115 0 1.672-.513 3.052-1.538 4.138-1.025 1.088-2.391 1.63-4.098 1.63-1.673 0-3.022-.544-4.048-1.63-1.025-1.084-1.537-2.464-1.537-4.138z" fill="#fff"/><g filter="url(#filter0_d)"><path fill-rule="evenodd" clip-rule="evenodd" d="M45.459 40.756a4.53 4.53 0 00-.725-.89c-.931-.895-2.104-1.343-3.518-1.343-1.45 0-2.631.45-3.543 1.343a4.678 4.678 0 00-.712.89c-.44.725-.66 1.57-.66 2.53 0 .943.212 1.77.636 2.478.2.332.444.637.734.916.914.878 2.095 1.317 3.543 1.317 1.414 0 2.587-.447 3.518-1.342a4.53 4.53 0 00.727-.89c.446-.717.669-1.545.669-2.48.004-.96-.221-1.802-.67-2.529z" fill="#fff"/></g><path fill-rule="evenodd" clip-rule="evenodd" d="M34.594 41H1v5h33.571a7.825 7.825 0 01-.371-2.463c0-.917.132-1.764.394-2.537zm13.213 5a7.466 7.466 0 00.393-2.463A7.612 7.612 0 0047.803 41H109v5H47.807z" fill="#fff"/><defs><filter id="filter0_d" x="28.3" y="33.523" width="25.828" height="25.474" filterUnits="userSpaceOnUse" color-interpolation-filters="sRGB"><feFlood flood-opacity="0" result="BackgroundImageFix"/><feColorMatrix in="SourceAlpha" values="0 0 0 0 0 0 0 0 0 0 0 0 0 0 0 0 0 0 127 0"/><feOffset dy="3"/><feGaussianBlur stdDeviation="4"/><feColorMatrix values="0 0 0 0 0 0 0 0 0 0 0 0 0 0 0 0 0 0 0.1 0"/><feBlend in2="BackgroundImageFix" result="effect1_dropShadow"/><feBlend in="SourceGraphic" in2="effect1_dropShadow" result="shape"/></filter></defs></svg>